<svg width="201" height="33" viewBox="0 0 201 33" fill="none" xmlns="http://www.w3.org/2000/svg">
<path d="M44.7 16C44.7 14.6267 45.0067 13.4 45.62 12.32C46.2467 11.2267 47.0933 10.38 48.16 9.78C49.24 9.16667 50.4467 8.86 51.78 8.86C53.34 8.86 54.7067 9.26 55.88 10.06C57.0533 10.86 57.8733 11.9667 58.34 13.38H55.12C54.8 12.7133 54.3467 12.2133 53.76 11.88C53.1867 11.5467 52.52 11.38 51.76 11.38C50.9467 11.38 50.22 11.5733 49.58 11.96C48.9533 12.3333 48.46 12.8667 48.1 13.56C47.7533 14.2533 47.58 15.0667 47.58 16C47.58 16.92 47.7533 17.7333 48.1 18.44C48.46 19.1333 48.9533 19.6733 49.58 20.06C50.22 20.4333 50.9467 20.62 51.76 20.62C52.52 20.62 53.1867 20.4533 53.76 20.12C54.3467 19.7733 54.8 19.2667 55.12 18.6H58.34C57.8733 20.0267 57.0533 21.14 55.88 21.94C54.72 22.7267 53.3533 23.12 51.78 23.12C50.4467 23.12 49.24 22.82 48.16 22.22C47.0933 21.6067 46.2467 20.76 45.62 19.68C45.0067 18.6 44.7 17.3733 44.7 16ZM73.2716 9.04L68.1516 23H64.7516L59.6316 9.04H62.6316L66.4716 20.14L70.2916 9.04H73.2716ZM82.5759 20.64H88.8559V23H79.3359V20.84L85.5759 11.4H79.3359V9.04H88.8559V11.2L82.5759 20.64ZM90.5194 17.42C90.5194 16.3 90.7394 15.3067 91.1794 14.44C91.6327 13.5733 92.2394 12.9067 92.9994 12.44C93.7727 11.9733 94.6327 11.74 95.5794 11.74C96.406 11.74 97.126 11.9067 97.7394 12.24C98.366 12.5733 98.866 12.9933 99.2394 13.5V11.92H102.059V23H99.2394V21.38C98.8794 21.9 98.3794 22.3333 97.7394 22.68C97.1127 23.0133 96.386 23.18 95.5594 23.18C94.626 23.18 93.7727 22.94 92.9994 22.46C92.2394 21.98 91.6327 21.3067 91.1794 20.44C90.7394 19.56 90.5194 18.5533 90.5194 17.42ZM99.2394 17.46C99.2394 16.78 99.106 16.2 98.8394 15.72C98.5727 15.2267 98.2127 14.8533 97.7594 14.6C97.306 14.3333 96.8194 14.2 96.2994 14.2C95.7794 14.2 95.2994 14.3267 94.8594 14.58C94.4194 14.8333 94.0594 15.2067 93.7794 15.7C93.5127 16.18 93.3794 16.7533 93.3794 17.42C93.3794 18.0867 93.5127 18.6733 93.7794 19.18C94.0594 19.6733 94.4194 20.0533 94.8594 20.32C95.3127 20.5867 95.7927 20.72 96.2994 20.72C96.8194 20.72 97.306 20.5933 97.7594 20.34C98.2127 20.0733 98.5727 19.7 98.8394 19.22C99.106 18.7267 99.2394 18.14 99.2394 17.46ZM118.554 11.76C119.914 11.76 121.007 12.18 121.834 13.02C122.674 13.8467 123.094 15.0067 123.094 16.5V23H120.294V16.88C120.294 16.0133 120.074 15.3533 119.634 14.9C119.194 14.4333 118.594 14.2 117.834 14.2C117.074 14.2 116.467 14.4333 116.014 14.9C115.574 15.3533 115.354 16.0133 115.354 16.88V23H112.554V16.88C112.554 16.0133 112.334 15.3533 111.894 14.9C111.454 14.4333 110.854 14.2 110.094 14.2C109.321 14.2 108.707 14.4333 108.254 14.9C107.814 15.3533 107.594 16.0133 107.594 16.88V23H104.794V11.92H107.594V13.26C107.954 12.7933 108.414 12.4267 108.974 12.16C109.547 11.8933 110.174 11.76 110.854 11.76C111.721 11.76 112.494 11.9467 113.174 12.32C113.854 12.68 114.381 13.2 114.754 13.88C115.114 13.24 115.634 12.7267 116.314 12.34C117.007 11.9533 117.754 11.76 118.554 11.76ZM125.031 17.42C125.031 16.3 125.251 15.3067 125.691 14.44C126.144 13.5733 126.751 12.9067 127.511 12.44C128.284 11.9733 129.144 11.74 130.091 11.74C130.918 11.74 131.638 11.9067 132.251 12.24C132.878 12.5733 133.378 12.9933 133.751 13.5V11.92H136.571V23H133.751V21.38C133.391 21.9 132.891 22.3333 132.251 22.68C131.624 23.0133 130.898 23.18 130.071 23.18C129.138 23.18 128.284 22.94 127.511 22.46C126.751 21.98 126.144 21.3067 125.691 20.44C125.251 19.56 125.031 18.5533 125.031 17.42ZM133.751 17.46C133.751 16.78 133.618 16.2 133.351 15.72C133.084 15.2267 132.724 14.8533 132.271 14.6C131.818 14.3333 131.331 14.2 130.811 14.2C130.291 14.2 129.811 14.3267 129.371 14.58C128.931 14.8333 128.571 15.2067 128.291 15.7C128.024 16.18 127.891 16.7533 127.891 17.42C127.891 18.0867 128.024 18.6733 128.291 19.18C128.571 19.6733 128.931 20.0533 129.371 20.32C129.824 20.5867 130.304 20.72 130.811 20.72C131.331 20.72 131.818 20.5933 132.271 20.34C132.724 20.0733 133.084 19.7 133.351 19.22C133.618 18.7267 133.751 18.14 133.751 17.46ZM145.446 11.76C146.766 11.76 147.832 12.18 148.646 13.02C149.459 13.8467 149.866 15.0067 149.866 16.5V23H147.066V16.88C147.066 16 146.846 15.3267 146.406 14.86C145.966 14.38 145.366 14.14 144.606 14.14C143.832 14.14 143.219 14.38 142.766 14.86C142.326 15.3267 142.106 16 142.106 16.88V23H139.306V11.92H142.106V13.3C142.479 12.82 142.952 12.4467 143.526 12.18C144.112 11.9 144.752 11.76 145.446 11.76ZM169.234 23H166.434L160.094 13.42V23H157.294V9.02H160.094L166.434 18.62V9.02H169.234V23ZM176.921 23.18C175.854 23.18 174.894 22.9467 174.041 22.48C173.188 22 172.514 21.3267 172.021 20.46C171.541 19.5933 171.301 18.5933 171.301 17.46C171.301 16.3267 171.548 15.3267 172.041 14.46C172.548 13.5933 173.234 12.9267 174.101 12.46C174.968 11.98 175.934 11.74 177.001 11.74C178.068 11.74 179.034 11.98 179.901 12.46C180.768 12.9267 181.448 13.5933 181.941 14.46C182.448 15.3267 182.701 16.3267 182.701 17.46C182.701 18.5933 182.441 19.5933 181.921 20.46C181.414 21.3267 180.721 22 179.841 22.48C178.974 22.9467 178.001 23.18 176.921 23.18ZM176.921 20.74C177.428 20.74 177.901 20.62 178.341 20.38C178.794 20.1267 179.154 19.7533 179.421 19.26C179.688 18.7667 179.821 18.1667 179.821 17.46C179.821 16.4067 179.541 15.6 178.981 15.04C178.434 14.4667 177.761 14.18 176.961 14.18C176.161 14.18 175.488 14.4667 174.941 15.04C174.408 15.6 174.141 16.4067 174.141 17.46C174.141 18.5133 174.401 19.3267 174.921 19.9C175.454 20.46 176.121 20.74 176.921 20.74ZM200.115 11.92L196.875 23H193.855L191.835 15.26L189.815 23H186.775L183.515 11.92H186.355L188.315 20.36L190.435 11.92H193.395L195.475 20.34L197.435 11.92H200.115Z" fill="white"/>
<rect x="19.438" y="3.44238" width="22.6204" height="4.86884" transform="rotate(135 19.438 3.44238)" fill="white"/>
<path d="M16.0708 19.5117L12.5635 16.0044L16.0708 16.0044L19.5136 16.0689L16.0708 19.5117Z" fill="white"/>
<rect x="15.9966" y="32.0107" width="22.6204" height="4.86884" transform="rotate(-135 15.9966 32.0107)" fill="white"/>
<rect x="32.0005" y="16.0049" width="22.6204" height="4.86884" transform="rotate(135 32.0005 16.0049)" fill="white"/>
</svg>
