<svg width="30" height="30" viewBox="0 0 30 30" fill="none" xmlns="http://www.w3.org/2000/svg">
<path d="M20.6664 10.6063C21.37 10.6063 21.9403 10.036 21.9403 9.33244C21.9403 8.62891 21.37 8.05859 20.6664 8.05859C19.9629 8.05859 19.3926 8.62891 19.3926 9.33244C19.3926 10.036 19.9629 10.6063 20.6664 10.6063Z" fill="#D1D5DB"/>
<path d="M14.9998 9.54883C13.9217 9.54883 12.8678 9.86852 11.9714 10.4675C11.075 11.0665 10.3763 11.9178 9.96376 12.9138C9.55119 13.9099 9.44324 15.0059 9.65357 16.0633C9.8639 17.1207 10.3831 18.0919 11.1454 18.8543C11.9077 19.6166 12.879 20.1358 13.9364 20.3461C14.9938 20.5564 16.0898 20.4485 17.0858 20.0359C18.0819 19.6233 18.9332 18.9247 19.5322 18.0282C20.1311 17.1318 20.4508 16.0779 20.4508 14.9998C20.4508 13.5541 19.8765 12.1676 18.8543 11.1454C17.832 10.1231 16.4455 9.54883 14.9998 9.54883ZM14.9998 18.5383C14.3 18.5383 13.6159 18.3308 13.034 17.942C12.4521 17.5531 11.9985 17.0005 11.7307 16.3539C11.4629 15.7074 11.3928 14.9959 11.5294 14.3095C11.6659 13.6231 12.0029 12.9926 12.4978 12.4978C12.9926 12.0029 13.6231 11.6659 14.3095 11.5294C14.9959 11.3928 15.7074 11.4629 16.3539 11.7307C17.0005 11.9985 17.5531 12.4521 17.942 13.034C18.3308 13.6159 18.5383 14.3 18.5383 14.9998C18.5383 15.9383 18.1655 16.8383 17.5019 17.5019C16.8383 18.1655 15.9383 18.5383 14.9998 18.5383Z" fill="#D1D5DB"/>
<path d="M14.9992 6.2973C17.8335 6.2973 18.1696 6.30792 19.2887 6.35923C19.9617 6.36722 20.6284 6.4908 21.2596 6.72457C21.7175 6.90122 22.1334 7.17179 22.4805 7.51885C22.8275 7.86592 23.0981 8.28179 23.2747 8.73973C23.5085 9.37093 23.6321 10.0376 23.6401 10.7107C23.6914 11.8297 23.702 12.1658 23.702 15.001C23.702 17.8362 23.6914 18.1706 23.6401 19.2897C23.6321 19.9627 23.5085 20.6294 23.2747 21.2606C23.0981 21.7185 22.8275 22.1344 22.4805 22.4814C22.1334 22.8285 21.7175 23.0991 21.2596 23.2757C20.6284 23.5095 19.9617 23.6331 19.2887 23.6411C18.1696 23.6924 17.8335 23.703 14.9992 23.703C12.1649 23.703 11.8287 23.6924 10.7097 23.6411C10.0366 23.6331 9.36995 23.5095 8.73875 23.2757C8.28082 23.0991 7.86494 22.8285 7.51787 22.4814C7.17081 22.1344 6.90025 21.7185 6.7236 21.2606C6.48982 20.6294 6.36624 19.9627 6.35825 19.2897C6.30694 18.1706 6.29633 17.8345 6.29633 15.0001C6.29633 12.1658 6.30694 11.8297 6.35825 10.7107C6.36624 10.0376 6.48982 9.37093 6.7236 8.73973C6.90025 8.28179 7.17081 7.86592 7.51787 7.51885C7.86494 7.17179 8.28082 6.90122 8.73875 6.72457C9.36995 6.4908 10.0366 6.36722 10.7097 6.35923C11.8287 6.30792 12.1649 6.2973 14.9992 6.2973V6.2973ZM14.9992 4.38477C12.1162 4.38477 11.7544 4.39715 10.6221 4.44846C9.7417 4.46624 8.8707 4.63314 8.0461 4.94207C7.34081 5.2148 6.70029 5.63188 6.1656 6.16657C5.6309 6.70127 5.21382 7.34179 4.9411 8.04707C4.63206 8.87195 4.46516 9.74327 4.44748 10.624C4.39617 11.7563 4.38379 12.1163 4.38379 15.0001C4.38379 17.884 4.39617 18.2449 4.44748 19.3772C4.46526 20.2576 4.63216 21.1286 4.9411 21.9532C5.21382 22.6585 5.6309 23.299 6.1656 23.8337C6.70029 24.3684 7.34081 24.7855 8.0461 25.0582C8.87098 25.3673 9.74229 25.5342 10.623 25.5518C11.7553 25.6031 12.1162 25.6155 14.9992 25.6155C17.8821 25.6155 18.2439 25.6031 19.3763 25.5518C20.2569 25.5342 21.1283 25.3673 21.9531 25.0582C22.6584 24.7855 23.2989 24.3684 23.8336 23.8337C24.3683 23.299 24.7854 22.6585 25.0581 21.9532C25.3669 21.1283 25.5335 20.257 25.5509 19.3763C25.6022 18.244 25.6146 17.884 25.6146 15.0001C25.6146 12.1163 25.6022 11.7554 25.5509 10.6231C25.5331 9.74268 25.3662 8.87167 25.0573 8.04707C24.7845 7.34179 24.3674 6.70127 23.8328 6.16657C23.2981 5.63188 22.6575 5.2148 21.9523 4.94207C21.1273 4.63334 20.256 4.46674 19.3754 4.44934C18.2431 4.39627 17.883 4.38477 14.9992 4.38477Z" fill="#D1D5DB"/>
</svg>
