<svg width="30" height="30" viewBox="0 0 30 30" fill="none" xmlns="http://www.w3.org/2000/svg">
<path d="M28.7326 6.66845C27.7477 7.10486 26.6897 7.39973 25.5775 7.53301C26.7251 6.8463 27.5837 5.76551 27.9931 4.49229C26.9148 5.13274 25.7348 5.58355 24.5041 5.82511C23.6766 4.94152 22.5805 4.35586 21.386 4.15906C20.1915 3.96226 18.9654 4.16533 17.8981 4.73674C16.8308 5.30816 15.9821 6.21595 15.4836 7.31917C14.9851 8.4224 14.8648 9.65933 15.1414 10.8379C12.9566 10.7282 10.8193 10.1604 8.86819 9.17121C6.91707 8.18204 5.19575 6.79366 3.81594 5.09619C3.34415 5.91004 3.07286 6.85363 3.07286 7.85855C3.07234 8.76321 3.29512 9.65401 3.72144 10.4519C4.14776 11.2498 4.76444 11.9302 5.51676 12.4326C4.64427 12.4048 3.79102 12.1691 3.02804 11.745V11.8157C3.02796 13.0845 3.46685 14.3143 4.27026 15.2964C5.07367 16.2785 6.1921 16.9523 7.43579 17.2036C6.6264 17.4227 5.77783 17.4549 4.95415 17.298C5.30504 18.3897 5.98855 19.3444 6.90899 20.0284C7.82943 20.7124 8.94072 21.0914 10.0873 21.1124C8.14092 22.6404 5.73719 23.4692 3.26276 23.4655C2.82444 23.4656 2.38649 23.44 1.95117 23.3889C4.46286 25.0038 7.38665 25.8608 10.3727 25.8575C20.4809 25.8575 26.0068 17.4855 26.0068 10.2246C26.0068 9.9887 26.0009 9.75045 25.9903 9.51455C27.0652 8.73724 27.993 7.77468 28.7303 6.67198L28.7326 6.66845V6.66845Z" fill="#D1D5DB"/>
</svg>
